<svg xmlns="http://www.w3.org/2000/svg" viewBox="0 0 512 512"><path fill="#485eff" d="M256 482.3s140.9-247.8 0-388.7c0 0-102-112.6-219.5 4.9 0 0-53 110.9 24.7 188.7S256 482.3 256 482.3z" opacity=".3"/><path fill="#284172" d="M256 500.8c-2.1 0-4-.8-5.5-2.3L55.8 292.3l-4.4-4.6c-54.1-57.3-54.1-150.5 0-207.8 26.4-27.9 61.4-43.2 98.8-43.2 37.3 0 72.4 15.4 98.8 43.2l7 7.4 7-7.4c26.4-27.9 61.5-43.2 98.8-43.2s72.4 15.4 98.8 43.2c54.1 57.3 54.1 150.5 0 207.8L261.5 498.4c-1.5 1.5-3.4 2.4-5.5 2.4zM66.7 282 256 482.3l193.7-204.9c48.8-51.6 48.8-135.6 0-187.2-23.5-24.9-54.7-38.6-87.9-38.6s-64.4 13.7-87.9 38.6l-12.5 13.2c-1.4 1.5-3.4 2.3-5.5 2.3s-4-.9-5.5-2.3l-12.5-13.2c-23.5-24.9-54.7-38.6-87.9-38.6S85.6 65.3 62.1 90.2c-48.8 51.6-48.8 135.6 0 187.2l4.6 4.6z"/><path fill="#5c77ff" d="M216 369c0 22.7-7.6 43.6-20.5 60.3C177.4 452.8 149 468 117 468c-54.7 0-99-44.3-99-99 0-34 17.1-64 43.2-81.8C77.1 276.3 96.3 270 117 270c54.7 0 99 44.3 99 99z"/><path fill="#485eff" d="M460.5 207.9c-.4 0-.8 0-1.2-.1-4.1-.7-6.9-4.5-6.2-8.6 1.9-11.8 1.9-23.7-.3-35.4-.7-4.1 2-8 6-8.7 4.1-.7 8 2 8.7 6 2.4 13.4 2.5 27 .3 40.5-.5 3.7-3.7 6.3-7.3 6.3zm-7.2-61.1c-2.9 0-5.7-1.7-6.9-4.6-4.7-11.2-11.4-21.3-19.7-30-17.9-18.6-41.6-28.9-66.8-28.9-4.1 0-7.5-3.4-7.5-7.5s3.4-7.5 7.5-7.5c29.3 0 56.9 11.9 77.6 33.5 9.6 10.1 17.3 21.7 22.7 34.6 1.6 3.8-.2 8.2-4 9.8-.9.4-1.9.6-2.9.6z" opacity=".3"/><path fill="#284172" d="M180 361.5h-55.5V306c0-4.1-3.4-7.5-7.5-7.5s-7.5 3.4-7.5 7.5v55.5H54c-4.1 0-7.5 3.4-7.5 7.5s3.4 7.5 7.5 7.5h55.5V432c0 4.1 3.4 7.5 7.5 7.5s7.5-3.4 7.5-7.5v-55.5H180c4.1 0 7.5-3.4 7.5-7.5s-3.4-7.5-7.5-7.5z"/></svg>